<?xml version="1.0" encoding="UTF-8" standalone="no"?>
<svg
   viewBox="0 0 24 24"
   version="1.1"
   width="24"
   height="24"
   xml:space="preserve"
   id="svg22"
   sodipodi:docname="big-driver-manager.svg"
   inkscape:version="1.4.3 (0d15f75042, 2025-12-25)"
   xmlns:inkscape="http://www.inkscape.org/namespaces/inkscape"
   xmlns:sodipodi="http://sodipodi.sourceforge.net/DTD/sodipodi-0.dtd"
   xmlns:xlink="http://www.w3.org/1999/xlink"
   xmlns="http://www.w3.org/2000/svg"
   xmlns:svg="http://www.w3.org/2000/svg"><sodipodi:namedview
   id="namedview22"
   pagecolor="#ffffff"
   bordercolor="#666666"
   borderopacity="1.0"
   inkscape:showpageshadow="2"
   inkscape:pageopacity="0.0"
   inkscape:pagecheckerboard="0"
   inkscape:deskcolor="#d1d1d1"
   inkscape:zoom="32.378796"
   inkscape:cx="11.226483"
   inkscape:cy="11.658864"
   inkscape:window-width="1920"
   inkscape:window-height="1005"
   inkscape:window-x="0"
   inkscape:window-y="0"
   inkscape:window-maximized="1"
   inkscape:current-layer="svg22" />
  <defs
   id="defs13">
    <linearGradient
   id="linearGradient11"
   x1="12"
   x2="12"
   y1="0.85500002"
   y2="23.145"
   gradientUnits="userSpaceOnUse"
   gradientTransform="translate(4,-1.0000003)">
      <stop
   offset="0"
   style="stop-color:#d5ac76;stop-opacity:1;"
   id="stop1" />
      <stop
   offset="1"
   style="stop-color:#cb9354;stop-opacity:1;"
   id="stop2" />
    </linearGradient>
    <linearGradient
   id="linearGradient72"
   xlink:href="#a-3"
   gradientUnits="userSpaceOnUse"
   gradientTransform="matrix(22,0,0,22,-6.304512e-6,-0.003103)"
   x1=".05"
   x2="1"
   y2="1" />
    <linearGradient
   id="a-3"
   x1=".05"
   x2="1"
   y2="1"
   gradientTransform="matrix(22,0,0,22,-56.75,-22.125)"
   gradientUnits="userSpaceOnUse">
      <stop
   stop-color="#7e0000"
   offset="0.2"
   style="stop-color:#2f2216;stop-opacity:1;"
   id="stop3" />
      <stop
   stop-color="#ae0003"
   offset="0.205"
   style="stop-color:#d4a870;stop-opacity:0.8509804;"
   id="stop4" />
      <stop
   stop-color="#7e0002"
   offset="1"
   style="stop-color:#cc9659;stop-opacity:0.8509804;"
   id="stop5" />
    </linearGradient>
    <linearGradient
   id="linearGradient19"
   xlink:href="#b"
   gradientUnits="userSpaceOnUse"
   gradientTransform="matrix(0.71519052,0,0,0.71519052,0.34939848,2.5442747)"
   x1="15"
   y1="27"
   x2="15"
   y2="1.999" />
    <linearGradient
   id="b"
   gradientUnits="userSpaceOnUse"
   x1="15"
   x2="15"
   y1="27"
   y2="1.999"
   gradientTransform="translate(0.31156512,-51.71981)">
      <stop
   offset="0"
   stop-color="#1d1e1e"
   id="stop6" />
      <stop
   offset="1"
   stop-color="#44484c"
   id="stop7" />
    </linearGradient>
    <linearGradient
   id="linearGradient20"
   xlink:href="#c"
   gradientUnits="userSpaceOnUse"
   gradientTransform="matrix(0.71519052,0,0,0.71519052,0.34939848,2.5442747)"
   x1="17.382"
   y1="26.933001"
   x2="17.032"
   y2="13.634" />
    <linearGradient
   id="c"
   gradientUnits="userSpaceOnUse"
   x1="17.382"
   x2="17.032"
   y1="26.933001"
   y2="13.634"
   gradientTransform="translate(0.31156512,-51.71981)">
      <stop
   offset="0"
   stop-color="#fcfcfc"
   id="stop8" />
      <stop
   offset="1"
   stop-color="#eff0f1"
   id="stop9" />
    </linearGradient>
    <linearGradient
   id="linearGradient21"
   xlink:href="#a-5"
   gradientUnits="userSpaceOnUse"
   gradientTransform="matrix(0.71519052,0,0,0.71519052,0.34939848,2.5442747)"
   x1="10"
   y1="30"
   x2="10"
   y2="20.999001" />
    <linearGradient
   id="a-5"
   offset="0"><stop
     offset="0"
     stop-color="#f39c1f"
     id="stop10" /><stop
     offset="1"
     stop-color="#fdbc4b"
     id="stop11" /></linearGradient>
    <linearGradient
   id="linearGradient22"
   xlink:href="#a-5"
   gradientUnits="userSpaceOnUse"
   gradientTransform="matrix(0.71519052,0,0,0.71519052,0.34939848,2.5442747)"
   x1="22.778"
   y1="29.541"
   x2="22.645"
   y2="22.641001" />
    <linearGradient
   id="linearGradient23"
   xlink:href="#f"
   gradientUnits="userSpaceOnUse"
   gradientTransform="matrix(0.71519052,0,0,0.71519052,0.34939848,2.5442747)"
   x1="13.167"
   y1="10.613"
   x2="16.667"
   y2="14.113" />
    <linearGradient
   id="f"
   gradientUnits="userSpaceOnUse"
   x1="13.167"
   x2="16.667"
   y1="10.613"
   y2="14.113"
   gradientTransform="translate(0.31156512,-51.71981)"><stop
     offset="0"
     id="stop12" /><stop
     offset="1"
     stop-opacity="0"
     id="stop13" /></linearGradient>
    <linearGradient
   id="linearGradient24"
   xlink:href="#a-5"
   gradientUnits="userSpaceOnUse"
   gradientTransform="matrix(0.71519052,0,0,0.71519052,0.34939848,2.5442747)"
   x1="16"
   y1="12"
   x2="15.731"
   y2="8.1520004" />
  </defs>
  <rect
   x="1"
   y="0.99689674"
   width="22"
   height="22"
   rx="6.5999999"
   fill="url(#linearGradient72)"
   opacity="0.9"
   stroke="#808080"
   stroke-opacity="0.2"
   vector-effect="non-scaling-stroke"
   style="fill:url(#linearGradient72);-inkscape-stroke:hairline;opacity:0.76405838"
   id="rect13" />
  
  
  
  
  
  
  
  
  
  
  
  
<g
   id="g23"
   transform="matrix(0.88487374,0,0,0.88487374,20.537472,2.9307244)"><g
     transform="matrix(1.8399,0,0,1.6894,-23.83865,-2.5741783)"
     id="g2"><path
       d="m 4.5,13.125 v -0.75 h 9 v 0.75 z m 0,-1.5 v -0.75 h 9 v 0.75 z m 0,-1.5 v -0.75 h 9 v 0.75 z m 0,-1.5 v -0.75 h 9 v 0.75 z m 0,-1.5 v -0.75 h 9 v 0.75 z m 0,-1.5 v -0.75 h 9 v 0.75 z"
       fill="#fbc02d"
       fill-rule="evenodd"
       id="path1" /><path
       d="m 5.25,13.5 v -9 c 0,-0.625 0.5,-1.125 1.125,-1.125 h 5.25 c 0.625,0 1.125,0.5 1.125,1.125 v 9 c 0,0.625 -0.5,1.125 -1.125,1.125 H 6.375 C 5.75,14.625 5.25,14.125 5.25,13.5 Z"
       fill="#36464e"
       id="path2" /></g><path
     d="m -5.010086,9.0407847 a 1.8889181,1.8578332 80.575 0 0 -0.301423,0.07798 c -1.723356,0.596629 -1.30322,2.6758413 -1.30322,2.6758413 0,0 0.154545,0.931721 1.089241,1.256829 0.776448,0.296861 1.103837,-0.218439 1.167392,-0.298196 0.05225,-0.08673 1.190909,-2.15635 1.532506,1.361521 0,0 0.418109,-0.640823 0.226819,-1.986227 -0.186578,-1.343225 -1.047918,-1.27842 -1.047918,-1.27842 0,0 -0.391671,-0.03814 -0.990191,0.903609 -0.606529,0.937178 -0.671233,0.905198 -0.671233,0.905198 0,0 -0.183452,0.186543 -0.267837,-0.182388 -0.09026,-0.378273 -0.354251,-1.506877 0.675388,-2.312451 1.021175,-0.8041713 1.822356,0.61974 1.822356,0.61974 0,0 -0.454331,-1.9793013 -1.93166,-1.7416033 z m -3.02014,1.3905283 a 1.4530023,1.4291141 80.575 0 0 -0.230232,0.06175 c -0.417366,0.164963 -0.65025,0.560019 -0.528832,0.881579 0.129406,0.317287 0.567756,0.436051 0.986542,0.270862 0.417129,-0.166396 0.651686,-0.55142 0.530268,-0.872981 -0.10133,-0.261553 -0.415609,-0.392076 -0.757729,-0.341208 m -3.703841,0.883877 c 0,0 -0.415288,0.640351 -0.228255,1.977612 0.187997,1.342989 1.053578,1.286309 1.053578,1.286309 0,0 0.382007,0.03237 0.985967,-0.902917 0.606765,-0.935741 0.663225,-0.909758 0.663225,-0.909758 0,0 0.181577,-0.189179 0.270422,0.189331 0.08862,0.377074 0.361295,1.505711 -0.669745,2.311606 -1.029876,0.804154 -1.830803,-0.618338 -1.830803,-0.618338 0,0 0.518764,2.245551 2.244537,1.654345 1.723188,-0.589229 1.291698,-2.675333 1.291698,-2.675333 0,0 -0.14466,-0.924525 -1.08076,-1.249396 -0.776212,-0.295426 -1.107841,0.220568 -1.164571,0.29774 -0.0565,0.07859 -1.190909,2.15635 -1.535327,-1.361065 m 4.138186,0.450647 a 0.63931964,0.62881157 80.575 0 0 -0.454483,0.919321 c 0,0 0.596815,1.37975 2.521599,1.106151 0,0 -1.242943,-0.620111 -1.370678,-1.547439 a 0.63496099,0.6245205 80.575 0 0 -0.696405,-0.47805"
     clip-path="url(#i)"
     fill="#ffffff"
     stroke-width="1.44101"
     id="path3" /></g><g
   id="g22"
   transform="matrix(0.53813462,0,0,0.53813462,2.3769185,-0.30443463)"><path
     d="m 9.3801096,10.019447 c 0.2574688,-1.0198621 0.0092,-2.1040911 0.045064,-3.1554211 0.078675,-2.2957617 1.3531414,-2.8164204 2.6597934,-2.8843635 1.49904,-0.078671 3.273427,0.8095957 3.380706,2.9751928 0.05079,1.0363108 -0.132305,2.1069512 0.135176,3.1096488 0.622934,2.338673 3.397029,4.027237 3.33565,6.446012 0.03577,2.298621 -1.02272,5.007763 -2.975191,6.220725 -1.00842,0.626508 -2.376578,-0.125167 -3.561651,-0.04506 -1.318094,0.09011 -2.7842346,1.260882 -3.9213876,0.586456 C 6.4142285,22.047511 5.8449382,18.906396 5.9994198,16.510507 6.156755,14.075999 8.7829403,12.385288 9.3801239,10.019438 Z"
     fill="url(#linearGradient19)"
     id="path14"
     style="fill:url(#linearGradient19)" /><ellipse
     cx="13.051182"
     cy="8.1098881"
     fill="#fcfcfc"
     fill-opacity="0.941"
     rx="1.0599123"
     ry="1.3703051"
     id="ellipse14" /><ellipse
     cx="10.540867"
     cy="8.1578035"
     fill="#fcfcfc"
     fill-opacity="0.941"
     rx="0.74880451"
     ry="1.1156973"
     id="ellipse15" /><ellipse
     cx="12.91959"
     cy="8.3330269"
     fill="#232629"
     rx="0.43412066"
     ry="0.71733612"
     id="ellipse16" /><ellipse
     cx="10.544445"
     cy="8.3330269"
     fill="#232629"
     rx="0.33041805"
     ry="0.53424734"
     id="ellipse17" /><path
     d="m 12.911005,9.5223892 a 3.6245858,3.6245858 0 0 0 -0.389779,0.00287 c -0.879682,0.051494 -1.822304,0.3969307 -2.298621,0.8153168 -0.7623939,0.670134 -0.3103935,1.321673 -0.6386655,2.262863 -0.328272,0.941191 -1.1543173,2.172749 -1.4017739,3.347092 -0.1001368,0.474171 -0.2274294,0.948344 -0.3146831,1.42466 l 2.3551225,2.877926 c 0.462727,0.565 -0.7445142,0.355447 -1.8673644,-0.371902 0.7967227,1.120704 2.3772944,2.231395 3.9378414,2.12626 1.662102,-0.111558 3.624586,-1.849482 4.252522,-3.270565 -0.609342,-0.103008 -1.20152,-1.019869 -0.71376,-1.702875 0.169505,-0.23673 0.533533,-0.257469 0.84607,-0.207407 C 16.489819,16.098565 16.11506,15.446311 15.926964,14.898475 15.600838,13.942981 15.221785,13.6755 14.875635,12.827284 14.528765,11.979067 14.894945,10.40994 13.918709,9.7991667 13.644076,9.627522 13.292917,9.5416993 12.911005,9.5223892 Z"
     fill="url(#linearGradient20)"
     id="path17"
     style="fill:url(#linearGradient20)" /><path
     d="m 5.593892,18.53951 c 0.3482961,-0.278924 0.511359,-0.846069 0.9461967,-0.94691 0.3404302,-0.07868 0.7223427,0.11657 0.9919697,0.338284 0.615777,0.506354 0.7094675,1.440393 1.1943672,2.074053 0.3232659,0.421247 0.8711029,0.660836 1.1271393,1.126423 0.2667671,0.486331 0.6107741,1.128572 0.3604571,1.622768 -0.3375698,0.665843 -1.3045077,0.872533 -2.0511668,0.90114 C 7.7094257,23.673208 7.3153549,23.32628 6.8783728,23.2047 6.241853,23.027334 5.5073537,23.136763 4.9402063,22.799184 4.4910675,22.532419 3.9589657,22.126192 3.9260679,21.604817 3.9124266,21.398843 4.213573,21.286559 4.2636366,21.086304 4.3966553,20.559924 3.8867317,19.949151 4.1284607,19.462821 4.3859294,18.946453 5.1426023,18.899968 5.5938872,18.53951 Z"
     fill="url(#linearGradient21)"
     id="path18"
     style="fill:url(#linearGradient21)" /><path
     d="m 15.675932,17.755661 c -0.143758,0.128736 -0.265335,0.291084 -0.354018,0.452002 -0.384774,0.698741 -0.125167,1.602027 -0.341147,2.369425 -0.144471,0.511363 -0.564286,0.9369 -0.629368,1.463281 -0.06794,0.550697 -0.150197,1.274468 0.265337,1.641363 0.560709,0.493481 1.535514,0.326841 2.239262,0.07723 0.428399,-0.151609 0.665125,-0.619356 1.026296,-0.893987 0.52495,-0.400508 1.248008,-0.572153 1.649946,-1.094957 0.318259,-0.41481 0.662981,-0.988394 0.500634,-1.484735 -0.06437,-0.195956 -0.384773,-0.18952 -0.50564,-0.356875 -0.318261,-0.439842 -0.07152,-1.194367 -0.475603,-1.556255 -0.30038,-0.268196 -0.741651,-0.237443 -1.167906,-0.248885 -0.205976,0.441273 -0.876824,0.741652 -1.338121,0.613633 -0.390494,-0.108702 -0.779559,-0.552843 -0.869672,-0.981242 z"
     fill="url(#linearGradient22)"
     id="path19"
     style="fill:url(#linearGradient22)" /><path
     d="M 13.938018,9.2677811 16.32175,11.651511 12.984669,13.353665 9.7663112,10.135307"
     fill="url(#linearGradient23)"
     opacity="0.2"
     id="path20"
     style="fill:url(#linearGradient23)" /><path
     d="m 11.60006,8.3745084 c 0.471312,-0.02503 0.904717,0.2803545 1.330255,0.4841839 0.411235,0.1981078 1.113554,0.2574686 1.171482,0.7101841 0.06653,0.5142216 -0.657974,0.8174626 -1.081367,1.1156976 -0.378335,0.266766 -0.800299,0.579304 -1.262312,0.575013 C 11.2911,11.25458 10.877719,10.919872 10.495806,10.65096 10.181123,10.429251 9.6854959,10.224706 9.6733377,9.8392185 9.6597456,9.4272688 10.166819,9.1647939 10.495806,8.9151922 10.821934,8.6677363 11.190972,8.3959638 11.60006,8.3745084 Z"
     fill="url(#linearGradient24)"
     id="path21"
     style="fill:url(#linearGradient24)" /><path
     d="m 6.8011328,17.581156 a 0.75381081,0.75381081 0 0 0 -0.2610441,0.01158 c -0.4348377,0.10085 -0.598616,0.667988 -0.9469121,0.946911 -0.451285,0.360456 -1.2079594,0.40766 -1.4654266,0.923313 -0.1072905,0.215986 -0.058642,0.45772 0.00857,0.704461 0.2631902,-0.504925 1.0091324,-0.554989 1.4568436,-0.912583 0.3482962,-0.278924 0.5120745,-0.84607 0.9469121,-0.946912 0.3404302,-0.07868 0.7223427,0.11657 0.9919682,0.338285 0.6157802,0.506355 0.7094691,1.440394 1.1943688,2.074052 0.3232659,0.421964 0.8711028,0.660121 1.1271393,1.12571 0.1394745,0.254607 0.295374,0.552126 0.381198,0.848216 C 10.43144,22.208573 10.109593,21.598515 9.8535649,21.130781 9.5975919,20.665901 9.049755,20.426312 8.726489,20.005067 8.2415894,19.371407 8.1478989,18.437368 7.5321218,17.931013 7.3297227,17.764381 7.0651018,17.61347 6.8011962,17.581286 Z"
     fill="#eff0f1"
     fill-opacity="0.125"
     id="path22" /></g></svg>
