<svg width="24" height="24" fill="none" version="1.1" xmlns="http://www.w3.org/2000/svg" xmlns:xlink="http://www.w3.org/1999/xlink"><defs><linearGradient id="a" x1="1.4307" x2="22.569" y1="12" y2="12" gradientUnits="userSpaceOnUse"><stop stop-color="#7dab67" offset="0"/><stop stop-color="#598348" offset="1"/></linearGradient></defs><rect x="1.4307" y="2.1239" width="21.138" height="19.752" rx="2.7062" fill="url(#a)" opacity=".9" stroke="#808080" stroke-opacity=".2" stroke-width=".92882" vector-effect="non-scaling-stroke" style="-inkscape-stroke:hairline"/><g transform="matrix(1.5216 0 0 1.5216 -1.7284 -1.7239)" fill="#fff"><path d="m8.445 7.328c0.207-0.082 0.446-0.062 0.645 0.047 0.07 0.055 0.125 0.117 0.164 0.199 0.043 0.098 0.035 0.207-0.02 0.309-0.062 0.125-0.164 0.226-0.289 0.289-0.093 0.047-0.191 0.074-0.293 0.082-0.109 0.019-0.226 0-0.324-0.043-0.129-0.047-0.238-0.156-0.281-0.293-0.027-0.109-0.012-0.207 0.043-0.297 0.082-0.137 0.211-0.246 0.355-0.293z"/><path d="m8.465 8.574c0.09-0.148 0.242-0.238 0.414-0.238 0.094 8e-3 0.176 0.027 0.258 0.062 0.117 0.047 0.199 0.149 0.226 0.266 0 0.137 0.016 0.281 0.043 0.418 0.074 0.281 0.274 0.516 0.481 0.707 0.101 0.117 0.246 0.207 0.347 0.328-0.164-0.012-0.32-0.019-0.472-0.055-0.192-0.027-0.371-0.101-0.547-0.191-0.098-0.047-0.188-0.109-0.27-0.183-0.136-0.098-0.246-0.227-0.336-0.372-0.109-0.164-0.171-0.351-0.191-0.543 0-0.066 0.02-0.136 0.047-0.199z"/><path d="m10.207 7.055c0.219-0.235 0.5-0.391 0.809-0.453 0.109 0 0.207-0.016 0.308-0.016 0.117 8e-3 0.235 0.035 0.344 0.09 0.172 0.097 0.316 0.234 0.437 0.39 0.172 0.227 0.29 0.5 0.344 0.782 8e-3 0.097 8e-3 0.187 8e-3 0.289-0.055-0.082-0.109-0.164-0.145-0.262-0.062-0.109-0.156-0.219-0.253-0.301-0.145-0.136-0.336-0.219-0.536-0.219-0.074 0-0.156 8e-3 -0.226 0.028-0.211 0.055-0.391 0.164-0.535 0.328-0.047 0.055-0.102 0.109-0.149 0.164-0.043 0.07-0.09 0.145-0.125 0.215-0.117 0.219-0.183 0.465-0.191 0.719 8e-3 0.101 8e-3 0.191 0.019 0.289 0.028 0.066 0.016 0.156 0.082 0.191 0.043 0 0.098-0.016 0.145-0.035 0.109-0.09 0.207-0.184 0.297-0.281 0.121-0.09 0.191-0.219 0.301-0.321 0.062-0.043 0.101-0.105 0.164-0.152 0.109-0.109 0.234-0.207 0.363-0.289 0.102-0.066 0.219-0.094 0.336-0.094 0.144 0.02 0.273 0.102 0.363 0.219 0.117 0.172 0.207 0.363 0.254 0.562 0.027 0.102 0.02 0.211 0.027 0.321-7e-3 0.363-0.074 0.715-0.191 1.051-0.035 0.117-0.098 0.238-0.164 0.335-0.027 0.028-0.035 0.063-0.07 0.075 7e-3 -0.075 0.015-0.137 0.035-0.211 8e-3 -0.071 0.019-0.153 8e-3 -0.227 0.011-0.117 0.011-0.234-8e-3 -0.351-0.028-0.121-0.035-0.246-0.074-0.364-0.016-0.082-0.043-0.175-0.09-0.246-0.016-0.054-0.055-0.09-0.09-0.136-0.047-0.036-0.109-0.063-0.172-0.075-0.047 0.012-0.09 0.028-0.137 0.047-0.101 0.074-0.191 0.156-0.273 0.254-0.07 0.074-0.145 0.137-0.234 0.199-0.129 0.09-0.282 0.137-0.438 0.118-0.207-0.028-0.406-0.09-0.582-0.208-0.078-0.054-0.16-0.109-0.227-0.183-0.171-0.18-0.281-0.406-0.308-0.652-0.016-0.071-0.028-0.153-0.016-0.227 8e-3 -0.301 0.082-0.598 0.215-0.863 0.066-0.125 0.148-0.243 0.238-0.352 0.035-0.047 0.082-0.101 0.137-0.148z"/><path d="m7.801 11.113c-0.219 0.239-0.5 0.391-0.809 0.457-0.101 8e-3 -0.207 8e-3 -0.308 0.016-0.118-8e-3 -0.235-0.035-0.344-0.09-0.172-0.101-0.32-0.234-0.438-0.398-0.172-0.227-0.289-0.5-0.343-0.782-0.012-0.101-0.012-0.191-0.012-0.293 0.066 0.082 0.109 0.165 0.148 0.258 0.063 0.106 0.153 0.215 0.243 0.297 0.148 0.137 0.335 0.219 0.539 0.219 0.07 0 0.152-8e-3 0.226-0.027 0.207-0.055 0.391-0.172 0.535-0.329 0.043-0.054 0.098-0.109 0.145-0.16 0.047-0.074 0.09-0.148 0.125-0.219 0.121-0.218 0.183-0.464 0.191-0.718-8e-3 -0.098-8e-3 -0.192-0.015-0.289-0.028-0.067-0.02-0.157-0.082-0.192-0.047 0-0.102 8e-3 -0.145 0.035-0.109 0.082-0.211 0.184-0.301 0.282-0.109 0.093-0.191 0.218-0.301 0.32-0.062 0.043-0.097 0.109-0.164 0.152-0.109 0.11-0.234 0.211-0.363 0.293-0.098 0.063-0.215 0.09-0.336 0.09-0.144-0.019-0.269-0.09-0.351-0.211-0.121-0.172-0.211-0.363-0.254-0.562-0.028-0.098-0.02-0.207-0.028-0.317 8e-3 -0.363 0.071-0.718 0.18-1.062 0.035-0.117 0.102-0.235 0.164-0.336 0.027-0.027 0.035-0.063 0.074-0.074-0.011 0.074-0.019 0.136-0.039 0.211-8e-3 0.07-0.015 0.152-8e-3 0.234-7e-3 0.117-7e-3 0.238 0 0.355 0.028 0.118 0.036 0.247 0.075 0.364 0.015 0.082 0.043 0.172 0.09 0.246 0.015 0.055 0.054 0.097 0.089 0.133 0.047 0.039 0.11 0.066 0.172 0.074 0.047-8e-3 0.09-0.028 0.137-0.047 0.102-0.07 0.191-0.152 0.273-0.254 0.071-0.07 0.164-0.144 0.246-0.199 0.126-0.09 0.27-0.137 0.426-0.117 0.207 0.027 0.407 0.089 0.582 0.207 0.078 0.054 0.16 0.109 0.235 0.183 0.172 0.18 0.281 0.41 0.316 0.653 0.02 0.074 0.027 0.156 0.02 0.226-8e-3 0.301-0.082 0.602-0.219 0.863-0.063 0.129-0.145 0.247-0.234 0.356-0.04 0.055-0.083 0.109-0.137 0.152z"/></g><g transform="matrix(1.1817 0 0 1.1817 1.3319 1.3644)"><g fill="#e1e493"><path d="m5.117 14.246c0 0.125-0.101 0.227-0.226 0.227s-0.227-0.102-0.227-0.227 0.102-0.226 0.227-0.226 0.226 0.101 0.226 0.226z"/><path d="m6.02 14.246c0 0.125-0.102 0.227-0.227 0.227s-0.227-0.102-0.227-0.227 0.102-0.226 0.227-0.226 0.227 0.101 0.227 0.226z"/><path d="m5.57 14.699c0 0.125-0.101 0.227-0.226 0.227s-0.227-0.102-0.227-0.227 0.102-0.226 0.227-0.226 0.226 0.101 0.226 0.226z"/><path d="m6.473 14.699c0 0.125-0.102 0.227-0.227 0.227s-0.226-0.102-0.226-0.227 0.101-0.226 0.226-0.226 0.227 0.101 0.227 0.226z"/><path d="m6.93 14.246c0 0.125-0.102 0.227-0.231 0.227-0.125 0-0.226-0.102-0.226-0.227s0.101-0.226 0.226-0.226c0.129 0 0.231 0.101 0.231 0.226z"/><path d="m7.836 14.246c0 0.125-0.102 0.227-0.227 0.227s-0.226-0.102-0.226-0.227 0.101-0.226 0.226-0.226 0.227 0.101 0.227 0.226z"/><path d="m7.383 14.699c0 0.125-0.102 0.227-0.227 0.227s-0.226-0.102-0.226-0.227 0.101-0.226 0.226-0.226 0.227 0.101 0.227 0.226z"/><path d="m8.285 14.699c0 0.125-0.101 0.227-0.226 0.227-0.129 0-0.231-0.102-0.231-0.227s0.102-0.226 0.231-0.226c0.125 0 0.226 0.101 0.226 0.226z"/><path d="m8.738 14.246c0 0.125-0.101 0.227-0.226 0.227s-0.227-0.102-0.227-0.227 0.102-0.226 0.227-0.226 0.226 0.101 0.226 0.226z"/><path d="m9.645 14.246c0 0.125-0.102 0.227-0.227 0.227s-0.227-0.102-0.227-0.227 0.102-0.226 0.227-0.226 0.227 0.101 0.227 0.226z"/><path d="m9.191 14.699c0 0.125-0.101 0.227-0.226 0.227s-0.227-0.102-0.227-0.227 0.102-0.226 0.227-0.226 0.226 0.101 0.226 0.226z"/><path d="m14.59 11.527c0 0.125-0.102 0.227-0.227 0.227s-0.226-0.102-0.226-0.227 0.101-0.226 0.226-0.226 0.227 0.101 0.227 0.226z"/><path d="m14.59 10.625c0 0.125-0.102 0.227-0.227 0.227s-0.226-0.102-0.226-0.227 0.101-0.227 0.226-0.227 0.227 0.102 0.227 0.227z"/><path d="m15.043 11.074c0 0.125-0.102 0.227-0.227 0.227s-0.226-0.102-0.226-0.227 0.101-0.226 0.226-0.226 0.227 0.101 0.227 0.226z"/><path d="m15.043 10.172c0 0.125-0.102 0.226-0.227 0.226s-0.226-0.101-0.226-0.226 0.101-0.227 0.226-0.227 0.227 0.102 0.227 0.227z"/><path d="m14.59 9.719c0 0.125-0.102 0.226-0.227 0.226s-0.226-0.101-0.226-0.226 0.101-0.227 0.226-0.227 0.227 0.102 0.227 0.227z"/><path d="m14.59 8.809c0 0.125-0.102 0.226-0.227 0.226s-0.226-0.101-0.226-0.226 0.101-0.227 0.226-0.227 0.227 0.102 0.227 0.227z"/><path d="m15.043 9.266c0 0.125-0.102 0.226-0.227 0.226s-0.226-0.101-0.226-0.226 0.101-0.231 0.226-0.231 0.227 0.106 0.227 0.231z"/><path d="m15.043 8.355c0 0.125-0.102 0.227-0.227 0.227s-0.226-0.102-0.226-0.227 0.101-0.226 0.226-0.226 0.227 0.101 0.227 0.226z"/><path d="m14.59 7.91c0 0.125-0.102 0.227-0.227 0.227s-0.226-0.102-0.226-0.227c0-0.129 0.101-0.23 0.226-0.23s0.227 0.101 0.227 0.23z"/><path d="m15.043 7.453c0 0.125-0.102 0.227-0.227 0.227s-0.226-0.102-0.226-0.227 0.101-0.226 0.226-0.226 0.227 0.101 0.227 0.226z"/><path d="m12.324 14.699c0 0.125-0.101 0.227-0.226 0.227s-0.227-0.102-0.227-0.227 0.102-0.226 0.227-0.226 0.226 0.101 0.226 0.226z"/><path d="m12.781 14.246c0 0.125-0.101 0.227-0.226 0.227-0.129 0-0.231-0.102-0.231-0.227s0.102-0.226 0.231-0.226c0.125 0 0.226 0.101 0.226 0.226z"/><path d="m13.684 14.246c0 0.125-0.102 0.227-0.231 0.227-0.125 0-0.226-0.102-0.226-0.227s0.101-0.226 0.226-0.226c0.129 0 0.231 0.101 0.231 0.226z"/><path d="m13.234 14.699c0 0.125-0.101 0.227-0.226 0.227s-0.227-0.102-0.227-0.227 0.102-0.226 0.227-0.226 0.226 0.101 0.226 0.226z"/><path d="m10.102 14.699c0 0.125-0.102 0.227-0.231 0.227-0.125 0-0.226-0.102-0.226-0.227s0.101-0.226 0.226-0.226c0.129 0 0.231 0.101 0.231 0.226z"/><path d="m14.148 14.922h0.895v-0.899z"/></g><path d="m14.957 3.555c0 0.332-0.269 0.601-0.602 0.601-0.332 0-0.601-0.269-0.601-0.601s0.269-0.602 0.601-0.602c0.333 0 0.602 0.27 0.602 0.602z" fill="#fbc02d"/><path d="m14.555 3.555c0 0.109-0.09 0.199-0.2 0.199-0.109 0-0.199-0.09-0.199-0.199 0-0.114 0.09-0.203 0.199-0.203 0.11 0 0.2 0.089 0.2 0.203z" fill="#263238"/><path d="m4.246 14.445c0 0.332-0.269 0.602-0.601 0.602-0.333 0-0.602-0.27-0.602-0.602s0.269-0.601 0.602-0.601c0.332 0 0.601 0.269 0.601 0.601z" fill="#fbc02d"/><path d="m3.844 14.445c0 0.114-0.09 0.203-0.199 0.203-0.11 0-0.2-0.089-0.2-0.203 0-0.109 0.09-0.199 0.2-0.199 0.109 0 0.199 0.09 0.199 0.199z" fill="#263238"/></g></svg>
