<svg id="Layer_4" data-name="Layer 4" xmlns="http://www.w3.org/2000/svg" viewBox="0 0 199.7 199.7"><defs><style>.cls-1{fill:#8dc075;}.cls-2{fill:#016899;}.cls-3{fill:#2a90c8;}.cls-4{fill:#fff;}.cls-5{fill:none;stroke:#069;stroke-miterlimit:10;stroke-width:9px;}.cls-6{fill:#e1e493;}.cls-7{fill:#069;}</style></defs><path class="cls-1" d="M200,40.27V.05H.3V40.27a6.66,6.66,0,0,1,0,13.31V199.75H200V53.58a6.66,6.66,0,1,1,0-13.31Z" transform="translate(-0.3 -0.05)"/><rect class="cls-2" x="28.73" y="28.73" width="142.24" height="142.24"/><rect class="cls-3" x="28.73" y="28.73" width="142.24" height="134.72"/><path id="path10" class="cls-4" d="M94,81.8a8.55,8.55,0,0,1,7.06.52,5.59,5.59,0,0,1,1.82,2.18,3.83,3.83,0,0,1-.21,3.38,7.15,7.15,0,0,1-3.17,3.17,7.23,7.23,0,0,1-3.22.88,7,7,0,0,1-3.59-.47,5.13,5.13,0,0,1-3.07-3.17,3.93,3.93,0,0,1,.52-3.22A7.22,7.22,0,0,1,94,81.8Z" transform="translate(-0.3 -0.05)"/><path id="path12" class="cls-4" d="M94.2,95.57A5.32,5.32,0,0,1,98.82,93a7.11,7.11,0,0,1,2.76.73,4.16,4.16,0,0,1,2.54,2.86,23.71,23.71,0,0,0,.47,4.57c.83,3.12,3,5.66,5.25,7.84,1.14,1.35,2.7,2.29,3.84,3.64a34.13,34.13,0,0,1-5.24-.56,17.72,17.72,0,0,1-6-2.12,13.28,13.28,0,0,1-3-2,16.25,16.25,0,0,1-3.69-4.11,13.18,13.18,0,0,1-2.13-6A6.89,6.89,0,0,1,94.2,95.57Z" transform="translate(-0.3 -0.05)"/><path id="path6" class="cls-4" d="M113.42,78.89a16.78,16.78,0,0,1,8.94-5c1.15,0,2.29-.16,3.38-.21a10.85,10.85,0,0,1,3.79,1A15.73,15.73,0,0,1,134.36,79a20.52,20.52,0,0,1,3.8,8.63,23.1,23.1,0,0,1,.1,3.22,13.3,13.3,0,0,1-1.6-2.86,13.79,13.79,0,0,0-2.75-3.32A8.78,8.78,0,0,0,128,82.25a7.73,7.73,0,0,0-2.5.31,12.26,12.26,0,0,0-5.92,3.59c-.52.63-1.09,1.2-1.56,1.82a25.73,25.73,0,0,0-1.4,2.4,19,19,0,0,0-2.13,7.9c.1,1.09.1,2.13.21,3.22.31.73.15,1.71.93,2.13a3.68,3.68,0,0,0,1.56-.4,38.81,38.81,0,0,0,3.32-3.12c1.25-1,2.14-2.4,3.33-3.53.68-.52,1.09-1.2,1.77-1.71a23.8,23.8,0,0,1,4-3.23,6.66,6.66,0,0,1,3.69-1A5.82,5.82,0,0,1,137.28,93a18.1,18.1,0,0,1,2.79,6.24c.26,1.14.16,2.34.32,3.53a40.48,40.48,0,0,1-2.08,11.64,16.6,16.6,0,0,1-1.82,3.74c-.26.31-.42.73-.8.83a18.54,18.54,0,0,1,.4-2.29,10.29,10.29,0,0,0,.11-2.54,26.05,26.05,0,0,0-.06-3.95c-.31-1.3-.36-2.7-.79-4a10.28,10.28,0,0,0-1-2.7,4.33,4.33,0,0,0-1-1.46,3.48,3.48,0,0,0-1.87-.79,7.31,7.31,0,0,0-1.51.46,14,14,0,0,0-3,2.8,17.25,17.25,0,0,1-2.55,2.18A6.78,6.78,0,0,1,119.6,108a15.39,15.39,0,0,1-6.44-2.28,13.89,13.89,0,0,1-2.54-2,12.79,12.79,0,0,1-3.44-7.17,5.69,5.69,0,0,1-.16-2.49,21.84,21.84,0,0,1,2.45-9.51,25.05,25.05,0,0,1,2.59-3.89A3.91,3.91,0,0,1,113.42,78.89Z" transform="translate(-0.3 -0.05)"/><path id="path3742" class="cls-4" d="M86.93,123.52a16.91,16.91,0,0,1-8.94,5c-1.14.05-2.29.15-3.38.21a10.91,10.91,0,0,1-3.79-1A15.7,15.7,0,0,1,66,123.36a20.48,20.48,0,0,1-3.8-8.62,23.1,23.1,0,0,1-.1-3.22,13.1,13.1,0,0,1,1.6,2.85,13.88,13.88,0,0,0,2.75,3.33,8.78,8.78,0,0,0,5.87,2.44,8.06,8.06,0,0,0,2.5-.31,12.2,12.2,0,0,0,5.92-3.6c.52-.62,1.09-1.19,1.56-1.81.46-.83,1-1.56,1.4-2.4a18.91,18.91,0,0,0,2.13-7.9c-.1-1.09-.1-2.13-.21-3.22-.31-.73-.15-1.71-.93-2.13a2.68,2.68,0,0,0-1.56.4,20.94,20.94,0,0,0-3.33,3.12c-1.24,1-2.12,2.4-3.32,3.53-.68.52-1.09,1.2-1.77,1.71a23.8,23.8,0,0,1-4,3.23,6.69,6.69,0,0,1-3.69,1,5.82,5.82,0,0,1-3.95-2.33,17.94,17.94,0,0,1-2.8-6.24c-.26-1.14-.15-2.34-.31-3.53A40.48,40.48,0,0,1,62,88a16.6,16.6,0,0,1,1.82-3.74c.26-.31.4-.73.78-.83a17.44,17.44,0,0,1-.4,2.28,10.38,10.38,0,0,0-.1,2.55,24.81,24.81,0,0,0,0,3.95c.31,1.3.36,2.7.78,4a9.63,9.63,0,0,0,1,2.7,4.17,4.17,0,0,0,1,1.46,3.7,3.7,0,0,0,1.87.78,7.78,7.78,0,0,0,1.51-.47,14.08,14.08,0,0,0,3-2.8A17.79,17.79,0,0,1,76,95.69a6.8,6.8,0,0,1,4.73-1.35,15.22,15.22,0,0,1,6.44,2.29,13.82,13.82,0,0,1,2.55,2,12.8,12.8,0,0,1,3.48,7.19,5.84,5.84,0,0,1,.16,2.49,21.8,21.8,0,0,1-2.45,9.51,25.2,25.2,0,0,1-2.6,3.9A4.41,4.41,0,0,1,86.93,123.52Z" transform="translate(-0.3 -0.05)"/><circle class="cls-5" cx="99.85" cy="99.85" r="43.82"/><circle class="cls-6" cx="32.07" cy="182.7" r="3.55"/><circle class="cls-6" cx="46.43" cy="182.7" r="3.55"/><circle class="cls-6" cx="39.25" cy="189.88" r="3.55"/><circle class="cls-6" cx="53.62" cy="189.88" r="3.55"/><circle class="cls-6" cx="60.8" cy="182.7" r="3.55"/><circle class="cls-6" cx="75.16" cy="182.7" r="3.55"/><circle class="cls-6" cx="67.98" cy="189.88" r="3.55"/><circle class="cls-6" cx="82.34" cy="189.88" r="3.55"/><circle class="cls-6" cx="89.53" cy="182.7" r="3.55"/><circle class="cls-6" cx="103.89" cy="182.7" r="3.55"/><circle class="cls-6" cx="96.71" cy="189.88" r="3.55"/><circle class="cls-6" cx="182.29" cy="139.61" r="3.55"/><circle class="cls-6" cx="182.29" cy="125.25" r="3.55"/><circle class="cls-6" cx="189.48" cy="132.43" r="3.55"/><circle class="cls-6" cx="189.48" cy="118.06" r="3.55"/><circle class="cls-6" cx="182.29" cy="110.88" r="3.55"/><circle class="cls-6" cx="182.29" cy="96.52" r="3.55"/><circle class="cls-6" cx="189.48" cy="103.7" r="3.55"/><circle class="cls-6" cx="189.48" cy="89.34" r="3.55"/><circle class="cls-6" cx="182.29" cy="82.15" r="3.55"/><circle class="cls-6" cx="189.48" cy="74.97" r="3.55"/><circle class="cls-6" cx="146.38" cy="189.88" r="3.55"/><circle class="cls-6" cx="153.57" cy="182.7" r="3.55"/><circle class="cls-6" cx="167.93" cy="182.7" r="3.55"/><circle class="cls-6" cx="160.75" cy="189.88" r="3.55"/><circle class="cls-6" cx="111.07" cy="189.88" r="3.55"/><polygon class="cls-6" points="193.1 179.16 178.87 193.43 193.1 193.43 193.1 179.16"/><rect class="cls-7" x="124.29" y="135.12" width="42.93" height="15.54" rx="7.77" transform="translate(143.43 -61.26) rotate(45)"/></svg>