<svg id="Layer_4" data-name="Layer 4" xmlns="http://www.w3.org/2000/svg" viewBox="0 0 177 153.84"><defs><style>.cls-1{fill:#069;}.cls-2{fill:#36464e;}.cls-3{fill:#2991c9;}.cls-4{fill:#fff;}.cls-5{fill:none;stroke:#afbdc3;stroke-miterlimit:10;stroke-width:13px;}</style></defs><polygon class="cls-1" points="17.8 26.37 17.8 136.51 43.73 136.51 43.73 124.95 73.06 124.95 73.06 136.51 177 136.51 177 26.37 17.8 26.37"/><rect class="cls-2" x="96.97" y="34.43" width="67.2" height="80.34" rx="12"/><rect class="cls-3" x="160.94" y="63.61" width="8.59" height="4.88"/><rect class="cls-3" x="160.94" y="72.16" width="8.59" height="4.88"/><rect class="cls-3" x="160.94" y="80.7" width="8.59" height="4.88"/><rect class="cls-3" x="160.94" y="89.24" width="8.59" height="4.88"/><rect class="cls-3" x="160.94" y="97.78" width="8.59" height="4.88"/><rect class="cls-3" x="160.94" y="46.53" width="8.59" height="4.88"/><rect class="cls-3" x="160.94" y="55.07" width="8.59" height="4.88"/><rect class="cls-3" x="92.61" y="63.61" width="8.59" height="4.88"/><rect class="cls-3" x="92.61" y="72.16" width="8.59" height="4.88"/><rect class="cls-3" x="92.61" y="80.7" width="8.59" height="4.88"/><rect class="cls-3" x="92.61" y="89.24" width="8.59" height="4.88"/><rect class="cls-3" x="92.61" y="97.78" width="8.59" height="4.88"/><rect class="cls-3" x="92.61" y="46.53" width="8.59" height="4.88"/><rect class="cls-3" x="92.61" y="55.07" width="8.59" height="4.88"/><path id="path6" class="cls-4" d="M151.66,83.67a11,11,0,0,1,5.8-3.27c.74,0,1.48-.1,2.19-.13a7.05,7.05,0,0,1,2.46.64,10.16,10.16,0,0,1,3.13,2.85,13.27,13.27,0,0,1,2.46,5.59,14.6,14.6,0,0,1,.07,2.09,8.81,8.81,0,0,1-1-1.85A8.89,8.89,0,0,0,165,87.43a5.71,5.71,0,0,0-3.81-1.58,5.5,5.5,0,0,0-1.62.2,8,8,0,0,0-3.84,2.33c-.34.41-.71.78-1,1.18s-.67,1-.91,1.56a12.36,12.36,0,0,0-1.38,5.12c.07.7.07,1.38.14,2.08.2.48.1,1.12.6,1.39a2.29,2.29,0,0,0,1-.26,26.35,26.35,0,0,0,2.16-2c.81-.68,1.38-1.56,2.15-2.29.44-.34.71-.78,1.15-1.11a14.91,14.91,0,0,1,2.59-2.09,4.22,4.22,0,0,1,2.39-.64,3.78,3.78,0,0,1,2.56,1.51,11.6,11.6,0,0,1,1.81,4c.17.74.11,1.52.21,2.3a26.17,26.17,0,0,1-1.35,7.54,10.92,10.92,0,0,1-1.18,2.43c-.17.2-.27.47-.52.54a14,14,0,0,1,.26-1.49,7,7,0,0,0,.07-1.65,16.85,16.85,0,0,0,0-2.56c-.21-.84-.24-1.75-.52-2.59a6.55,6.55,0,0,0-.68-1.75,2.7,2.7,0,0,0-.67-.94,2.24,2.24,0,0,0-1.21-.52,5.55,5.55,0,0,0-1,.3,9.35,9.35,0,0,0-2,1.82,11.8,11.8,0,0,1-1.65,1.41,4.42,4.42,0,0,1-3.07.88,10,10,0,0,1-4.18-1.48,9.11,9.11,0,0,1-1.65-1.32,8.32,8.32,0,0,1-2.22-4.64,3.71,3.71,0,0,1-.11-1.62,14.31,14.31,0,0,1,1.59-6.17,17,17,0,0,1,1.68-2.52A2.57,2.57,0,0,1,151.66,83.67Z" transform="translate(-12 -23.16)"/><path id="path3742" class="cls-4" d="M134.48,112.61a10.92,10.92,0,0,1-5.79,3.27c-.74,0-1.48.1-2.19.13a7,7,0,0,1-2.46-.64,10.19,10.19,0,0,1-3.13-2.86,13.15,13.15,0,0,1-2.46-5.59,13.32,13.32,0,0,1-.07-2.09,8.21,8.21,0,0,1,1,1.85,8.67,8.67,0,0,0,1.78,2.16,5.76,5.76,0,0,0,3.81,1.58,5.39,5.39,0,0,0,1.61-.2,7.93,7.93,0,0,0,3.84-2.33c.34-.41.71-.78,1-1.18a14.68,14.68,0,0,0,.91-1.56,12.22,12.22,0,0,0,1.39-5.12c-.07-.7-.07-1.38-.14-2.09-.2-.47-.1-1.11-.61-1.38a1.76,1.76,0,0,0-1,.26,13.33,13.33,0,0,0-2.15,2c-.81.67-1.38,1.55-2.16,2.29-.44.33-.71.77-1.14,1.11a16.81,16.81,0,0,1-2.59,2.09,4.48,4.48,0,0,1-2.4.64,3.83,3.83,0,0,1-2.56-1.52,11.78,11.78,0,0,1-1.81-4c-.17-.74-.1-1.52-.2-2.29a26.24,26.24,0,0,1,1.35-7.55,10.5,10.5,0,0,1,1.18-2.43c.17-.2.26-.47.5-.53a11.41,11.41,0,0,1-.26,1.48,6.5,6.5,0,0,0-.06,1.65,15.63,15.63,0,0,0,0,2.56c.2.84.23,1.75.5,2.59a6.55,6.55,0,0,0,.68,1.75,2.53,2.53,0,0,0,.67.94,2.29,2.29,0,0,0,1.21.51,4.66,4.66,0,0,0,1-.31,8.87,8.87,0,0,0,2-1.81,10.67,10.67,0,0,1,1.65-1.41,4.35,4.35,0,0,1,3.06-.88,10,10,0,0,1,4.18,1.48,8.7,8.7,0,0,1,1.65,1.32,8.3,8.3,0,0,1,2.26,4.66,3.83,3.83,0,0,1,.1,1.61,14.1,14.1,0,0,1-1.59,6.17,16.58,16.58,0,0,1-1.68,2.53A2.87,2.87,0,0,1,134.48,112.61Z" transform="translate(-12 -23.16)"/><path id="path10" class="cls-4" d="M139.07,85.56a5.56,5.56,0,0,1,4.58.34,3.59,3.59,0,0,1,1.18,1.41,2.52,2.52,0,0,1-.14,2.19,5,5,0,0,1-4.14,2.63,4.54,4.54,0,0,1-2.33-.31,3.34,3.34,0,0,1-2-2,2.55,2.55,0,0,1,.34-2.09A4.65,4.65,0,0,1,139.07,85.56Z" transform="translate(-12 -23.16)"/><path id="path12" class="cls-4" d="M139.2,94.49a3.46,3.46,0,0,1,3-1.66,4.71,4.71,0,0,1,1.78.48,2.67,2.67,0,0,1,1.65,1.85,14.8,14.8,0,0,0,.31,3,11.3,11.3,0,0,0,3.4,5.09c.74.88,1.75,1.48,2.49,2.36a24.2,24.2,0,0,1-3.4-.36,11.64,11.64,0,0,1-3.91-1.38,8.51,8.51,0,0,1-1.92-1.32,10.47,10.47,0,0,1-2.39-2.66A8.52,8.52,0,0,1,138.83,96,4.48,4.48,0,0,1,139.2,94.49Z" transform="translate(-12 -23.16)"/><rect class="cls-3" x="168.78" y="152.62" width="17.79" height="8.96" transform="translate(8.57 311.6) rotate(-90)"/><rect class="cls-3" x="154.73" y="152.62" width="17.79" height="8.96" transform="translate(-5.47 297.56) rotate(-90)"/><rect class="cls-3" x="140.69" y="152.62" width="17.79" height="8.96" transform="translate(-19.52 283.52) rotate(-90)"/><rect class="cls-3" x="126.64" y="152.62" width="17.79" height="8.96" transform="translate(-33.56 269.47) rotate(-90)"/><rect class="cls-3" x="112.6" y="152.62" width="17.79" height="8.96" transform="translate(-47.61 255.43) rotate(-90)"/><rect class="cls-3" x="98.56" y="152.62" width="17.79" height="8.96" transform="translate(-61.65 241.38) rotate(-90)"/><rect class="cls-2" x="34.8" y="42.69" width="44.46" height="27.8" rx="5"/><rect class="cls-2" x="34.8" y="78.7" width="44.46" height="27.8" rx="5"/><path class="cls-5" d="M29.81,177V36.69a7.15,7.15,0,0,0-7.21-7H12" transform="translate(-12 -23.16)"/></svg>