<svg width="24" height="24" fill="none" version="1.1" xmlns="http://www.w3.org/2000/svg"><g transform="matrix(1.8399 0 0 1.6894 -4.5593 -3.2042)"><path d="m4.5 13.125v-0.75h9v0.75zm0-1.5v-0.75h9v0.75zm0-1.5v-0.75h9v0.75zm0-1.5v-0.75h9v0.75zm0-1.5v-0.75h9v0.75zm0-1.5v-0.75h9v0.75z" fill="#fbc02d" fill-rule="evenodd"/><path d="m5.25 13.5v-9c0-0.625 0.5-1.125 1.125-1.125h5.25c0.625 0 1.125 0.5 1.125 1.125v9c0 0.625-0.5 1.125-1.125 1.125h-5.25c-0.625 0-1.125-0.5-1.125-1.125z" fill="#36464e"/></g><path transform="matrix(1.6894 0 0 1.6894 -3.2042 -3.2042)" d="m10.343 6.8752a1.1181 1.0997 80.575 0 0-0.17842 0.046158c-1.0201 0.35316-0.77141 1.5839-0.77141 1.5839s0.091479 0.55151 0.64475 0.74395c0.4596 0.17572 0.65339-0.1293 0.69101-0.17651 0.03093-0.051336 0.70493-1.2764 0.90713 0.80592 0 0 0.24749-0.37932 0.13426-1.1757-0.11044-0.79509-0.62029-0.75673-0.62029-0.75673s-0.23184-0.022574-0.58612 0.53487c-0.35902 0.55474-0.39732 0.53581-0.39732 0.53581s-0.10859 0.11042-0.15854-0.10796c-0.05343-0.22391-0.20969-0.89196 0.39978-1.3688 0.60446-0.47601 1.0787 0.36684 1.0787 0.36684s-0.26893-1.1716-1.1434-1.0309zm-1.7877 0.82309a0.86007 0.84593 80.575 0 0-0.13628 0.036553c-0.24705 0.097646-0.3849 0.33149-0.31303 0.52183 0.076599 0.18781 0.33607 0.25811 0.58396 0.16033 0.24691-0.098494 0.38575-0.3264 0.31388-0.51674-0.05998-0.15482-0.24601-0.23208-0.44852-0.20197m-2.1924 0.52319s-0.24582 0.37904-0.13511 1.1706c0.11128 0.79495 0.62364 0.7614 0.62364 0.7614s0.22612 0.01916 0.58362-0.53446c0.35916-0.55389 0.39258-0.53851 0.39258-0.53851s0.10748-0.11198 0.16007 0.11207c0.052458 0.2232 0.21386 0.89127-0.39644 1.3683-0.60961 0.476-1.0837-0.36601-1.0837-0.36601s0.30707 1.3292 1.3286 0.97925c1.02-0.34878 0.76459-1.5836 0.76459-1.5836s-0.085628-0.54725-0.63973-0.73955c-0.45946-0.17487-0.65576 0.13056-0.68934 0.17624-0.033442 0.046522-0.70493 1.2764-0.9088-0.80565m2.4495 0.26675a0.37843 0.37221 80.575 0 0-0.26902 0.54417s0.35327 0.81671 1.4926 0.65476c0 0-0.73573-0.36706-0.81134-0.91597a0.37585 0.36967 80.575 0 0-0.41222-0.28297" clip-path="url(#i)" fill="#fff" stroke-width=".85297"/></svg>
