<svg xmlns="http://www.w3.org/2000/svg" width="120" height="120" viewBox="0 0 120 120" fill="none">
  <!-- Outer glow rings -->
  <circle cx="60" cy="60" r="56" fill="none" stroke="#62a0ea" stroke-width="0.5" opacity="0.3"/>
  <circle cx="60" cy="60" r="48" fill="none" stroke="#62a0ea" stroke-width="0.8" opacity="0.15"/>

  <!-- CPU body with stronger fill -->
  <rect x="32" y="32" width="56" height="56" rx="10" fill="#3584e4" opacity="0.18"/>
  <rect x="32" y="32" width="56" height="56" rx="10" stroke="#3584e4" stroke-width="2.5" fill="none"/>

  <!-- Inner die with glow -->
  <rect x="43" y="43" width="34" height="34" rx="6" fill="#62a0ea" opacity="0.22"/>
  <rect x="43" y="43" width="34" height="34" rx="6" stroke="#3584e4" stroke-width="1.5" fill="none" opacity="0.6"/>

  <!-- Heart (kernel = heart of system) -->
  <path d="M60 53 C55 44, 44 48, 49 56 L60 70 L71 56 C76 48, 65 44, 60 53Z"
        fill="#3584e4" opacity="0.85"/>
  <path d="M60 53 C55 44, 44 48, 49 56 L60 70 L71 56 C76 48, 65 44, 60 53Z"
        fill="none" stroke="#1c71d8" stroke-width="1" opacity="0.5"/>

  <!-- Pins — top -->
  <rect x="42" y="20" width="4" height="12" rx="2" fill="#3584e4" opacity="0.5"/>
  <rect x="52" y="20" width="4" height="12" rx="2" fill="#3584e4" opacity="0.5"/>
  <rect x="62" y="20" width="4" height="12" rx="2" fill="#3584e4" opacity="0.5"/>
  <rect x="72" y="20" width="4" height="12" rx="2" fill="#3584e4" opacity="0.5"/>
  <!-- Pins — bottom -->
  <rect x="42" y="88" width="4" height="12" rx="2" fill="#3584e4" opacity="0.5"/>
  <rect x="52" y="88" width="4" height="12" rx="2" fill="#3584e4" opacity="0.5"/>
  <rect x="62" y="88" width="4" height="12" rx="2" fill="#3584e4" opacity="0.5"/>
  <rect x="72" y="88" width="4" height="12" rx="2" fill="#3584e4" opacity="0.5"/>
  <!-- Pins — left -->
  <rect x="20" y="42" width="12" height="4" rx="2" fill="#3584e4" opacity="0.5"/>
  <rect x="20" y="52" width="12" height="4" rx="2" fill="#3584e4" opacity="0.5"/>
  <rect x="20" y="62" width="12" height="4" rx="2" fill="#3584e4" opacity="0.5"/>
  <rect x="20" y="72" width="12" height="4" rx="2" fill="#3584e4" opacity="0.5"/>
  <!-- Pins — right -->
  <rect x="88" y="42" width="12" height="4" rx="2" fill="#3584e4" opacity="0.5"/>
  <rect x="88" y="52" width="12" height="4" rx="2" fill="#3584e4" opacity="0.5"/>
  <rect x="88" y="62" width="12" height="4" rx="2" fill="#3584e4" opacity="0.5"/>
  <rect x="88" y="72" width="12" height="4" rx="2" fill="#3584e4" opacity="0.5"/>

  <!-- Pin tip dots -->
  <circle cx="44" cy="18" r="3" fill="#62a0ea" opacity="0.6"/>
  <circle cx="54" cy="18" r="3" fill="#62a0ea" opacity="0.6"/>
  <circle cx="64" cy="18" r="3" fill="#62a0ea" opacity="0.6"/>
  <circle cx="74" cy="18" r="3" fill="#62a0ea" opacity="0.6"/>
  <circle cx="44" cy="102" r="3" fill="#62a0ea" opacity="0.6"/>
  <circle cx="54" cy="102" r="3" fill="#62a0ea" opacity="0.6"/>
  <circle cx="64" cy="102" r="3" fill="#62a0ea" opacity="0.6"/>
  <circle cx="74" cy="102" r="3" fill="#62a0ea" opacity="0.6"/>
  <circle cx="18" cy="44" r="3" fill="#62a0ea" opacity="0.6"/>
  <circle cx="18" cy="54" r="3" fill="#62a0ea" opacity="0.6"/>
  <circle cx="18" cy="64" r="3" fill="#62a0ea" opacity="0.6"/>
  <circle cx="18" cy="74" r="3" fill="#62a0ea" opacity="0.6"/>
  <circle cx="102" cy="44" r="3" fill="#62a0ea" opacity="0.6"/>
  <circle cx="102" cy="54" r="3" fill="#62a0ea" opacity="0.6"/>
  <circle cx="102" cy="64" r="3" fill="#62a0ea" opacity="0.6"/>
  <circle cx="102" cy="74" r="3" fill="#62a0ea" opacity="0.6"/>
</svg>
