<svg xmlns="http://www.w3.org/2000/svg" viewBox="0 0 32 32">
  <!-- Background circle -->
  <circle cx="16" cy="16" r="14" fill="#9141ac" opacity="0.10"/>
  <!-- Gamepad body -->
  <path d="M10 14 C10 12 11.5 11 13 11 L19 11 C20.5 11 22 12 22 14
           L22 18 C22 20 20.5 21 19 21 L17.5 21 L16.5 23.5 L15.5 23.5 L14.5 21 L13 21
           C11.5 21 10 20 10 18 Z"
        fill="#9141ac" opacity="0.15" stroke="#9141ac" stroke-width="1" stroke-linejoin="round"/>
  <!-- D-pad -->
  <line x1="12.5" y1="16" x2="15" y2="16" stroke="#9141ac" stroke-width="1.5" stroke-linecap="round"/>
  <line x1="13.75" y1="14.5" x2="13.75" y2="17.5" stroke="#9141ac" stroke-width="1.5" stroke-linecap="round"/>
  <!-- Action buttons -->
  <circle cx="19" cy="14.5" r="1" fill="#9141ac" opacity="0.6"/>
  <circle cx="20.5" cy="16" r="1" fill="#c061cb" opacity="0.5"/>
  <!-- Speed lines -->
  <line x1="7" y1="11" x2="9" y2="12.5" stroke="#9141ac" stroke-width="0.8" stroke-linecap="round" opacity="0.35"/>
  <line x1="7" y1="13.5" x2="8.5" y2="14" stroke="#9141ac" stroke-width="0.8" stroke-linecap="round" opacity="0.3"/>
</svg>
